<?xml version="1.0" standalone="no"?>
<!DOCTYPE svg PUBLIC "-//W3C//DTD SVG 20010904//EN"
 "http://www.w3.org/TR/2001/REC-SVG-20010904/DTD/svg10.dtd">
<svg version="1.0" xmlns="http://www.w3.org/2000/svg"
 width="1024.000000pt" height="1024.000000pt" viewBox="0 0 1024.000000 1024.000000"
 preserveAspectRatio="xMidYMid meet">

<g transform="translate(0.000000,1024.000000) scale(0.100000,-0.100000)"
fill="#000000" stroke="none">
<path d="M6405 8071 c-104 -28 -361 -135 -575 -239 -141 -69 -397 -186 -550
-252 -154 -66 -319 -143 -655 -305 -99 -48 -229 -109 -290 -135 -339 -147
-581 -274 -698 -366 -71 -55 -146 -157 -207 -279 -91 -184 -84 -80 -88 -1289
-3 -1161 -5 -1099 50 -1210 28 -55 106 -136 153 -157 49 -23 134 -24 203 -4
28 9 140 59 249 111 109 53 299 142 423 199 124 56 317 146 430 200 113 53
232 107 265 119 33 13 89 38 125 56 36 18 108 52 160 75 450 201 1070 501
1173 568 85 55 107 76 207 192 53 62 101 151 142 265 l23 65 3 960 c2 582 -1
992 -7 1041 -19 155 -115 311 -231 373 -62 34 -205 39 -305 12z m257 -40 c35
-16 83 -49 107 -73 50 -50 106 -158 121 -237 14 -74 14 -1868 0 -1981 -6 -47
-17 -105 -24 -130 -40 -137 -169 -318 -268 -375 -32 -19 -61 -35 -64 -35 -3 0
-32 -18 -65 -41 -33 -22 -84 -51 -112 -64 -73 -32 -343 -158 -457 -212 -52
-25 -126 -60 -165 -78 -38 -19 -160 -77 -270 -130 -110 -54 -211 -101 -225
-106 -24 -9 -24 -8 -6 6 11 8 16 15 12 15 -5 0 -4 6 2 13 12 15 19 83 9 93 -4
4 -7 -4 -7 -19 0 -62 -40 -119 -97 -138 -51 -16 -79 -5 -99 41 -17 38 -18 38
-28 17 -9 -17 -22 -23 -54 -25 -23 -2 -42 -7 -42 -12 0 -5 -10 -12 -22 -15
-13 -4 -47 -16 -76 -27 -41 -16 -58 -18 -76 -10 -15 7 -28 7 -41 0 -10 -6 -33
-14 -51 -18 -30 -7 -33 -6 -30 13 2 14 28 34 89 65 48 25 85 47 83 49 -2 2
-59 -24 -127 -57 -68 -34 -161 -79 -208 -100 -107 -47 -342 -162 -481 -234
-160 -84 -228 -99 -326 -75 -60 15 -116 71 -145 145 -22 56 -23 80 -34 459 -9
309 -12 359 -14 220 -1 -99 -5 -175 -9 -170 -4 6 -16 11 -27 13 -11 2 -25 5
-31 7 -7 2 -10 57 -8 172 3 220 -11 123 -21 -142 -4 -104 -9 -192 -11 -194 -3
-3 -3 366 -2 820 l3 824 44 100 c60 138 141 273 193 321 85 78 348 224 609
338 59 25 221 100 360 167 275 131 554 261 799 371 252 114 465 211 620 282
242 112 352 156 445 180 11 3 52 3 92 1 54 -2 87 -11 135 -34z m-2043 -3538
c0 -10 -3 -13 -5 -7 -4 9 -11 9 -29 0 -14 -6 -25 -14 -25 -18 0 -5 -4 -8 -10
-8 -21 0 -9 17 23 33 42 21 47 21 46 0z m471 -3 c-8 -5 -19 -10 -25 -10 -5 0
-3 5 5 10 8 5 20 10 25 10 6 0 3 -5 -5 -10z m-542 -41 l27 -1 -30 -9 c-16 -5
-42 -10 -57 -11 -16 -1 -28 -5 -28 -8 0 -3 -12 -6 -26 -6 -32 -2 -26 3 33 31
26 12 50 18 51 13 2 -4 16 -8 30 -9z m-1181 -211 c-2 -13 -4 -5 -4 17 -1 22 1
32 4 23 2 -10 2 -28 0 -40z"/>
<path d="M6376 7863 c-67 -20 -443 -182 -558 -240 -116 -58 -433 -203 -638
-293 -85 -37 -222 -100 -305 -140 -219 -105 -292 -139 -470 -220 -582 -264
-644 -300 -767 -450 -69 -84 -96 -133 -118 -213 -20 -72 -20 -97 -18 -1008 l3
-934 23 -58 c34 -82 75 -120 155 -142 63 -17 68 -17 119 0 49 16 163 70 358
171 41 22 138 68 215 104 77 35 239 113 360 173 121 59 252 124 290 142 39 19
126 59 195 89 205 88 471 207 705 314 121 55 265 119 320 142 173 72 261 118
314 166 62 56 135 165 170 254 l26 65 0 940 0 940 -28 57 c-33 67 -99 130
-155 146 -53 16 -136 14 -196 -5z m182 -110 c24 -12 46 -34 62 -63 l25 -45 1
-600 c1 -330 -2 -577 -6 -550 l-7 50 -1 -46 c-1 -25 -5 -49 -8 -52 -4 -4 -8
-21 -9 -38 -2 -17 -7 -34 -11 -38 -5 -3 -22 -33 -39 -66 -16 -33 -36 -65 -45
-71 -37 -28 -60 -52 -60 -63 0 -6 -7 -11 -16 -11 -16 0 -74 -52 -74 -67 0 -10
-101 -33 -143 -33 -15 0 -27 -4 -27 -9 0 -5 -18 -12 -40 -16 -25 -4 -40 -12
-40 -21 0 -9 -11 -14 -32 -14 -47 0 -78 -10 -78 -25 0 -7 -19 -16 -45 -19 -26
-4 -45 -13 -45 -20 0 -7 -24 -18 -52 -25 -29 -8 -57 -17 -63 -21 -5 -5 -27
-11 -48 -15 -31 -6 -38 -11 -34 -26 3 -11 1 -17 -4 -14 -16 10 -79 -7 -79 -21
0 -10 -14 -14 -52 -14 -60 0 -128 -16 -128 -30 0 -6 -9 -10 -20 -10 -11 0 -20
-4 -20 -9 0 -5 -21 -12 -47 -15 -98 -11 -133 -18 -133 -27 0 -5 -9 -9 -20 -9
-11 0 -20 -4 -20 -9 0 -5 -18 -12 -40 -16 -26 -4 -40 -12 -40 -22 0 -12 -8
-13 -40 -8 -32 5 -40 4 -40 -8 0 -16 -41 -27 -96 -27 -19 0 -34 -4 -34 -9 0
-5 -35 -12 -77 -16 -43 -3 -112 -11 -153 -17 -41 -6 -100 -11 -131 -13 -42 -1
-63 -8 -79 -23 -17 -16 -27 -19 -41 -12 -26 14 -69 12 -67 -2 2 -9 -12 -14
-39 -16 -24 -2 -43 -7 -43 -13 0 -5 -38 -9 -84 -9 -92 0 -116 -5 -116 -25 0
-8 -17 -16 -40 -20 -22 -4 -40 -12 -40 -20 0 -18 -47 -25 -175 -25 l-113 0
-12 -29 c-9 -24 -19 -30 -56 -36 l-44 -6 -3 -182 c-1 -100 -3 124 -2 499 l0
680 40 80 c59 118 106 153 375 289 124 62 323 156 443 210 200 88 355 159 662
305 61 28 148 68 195 87 47 20 137 60 200 90 63 30 219 102 345 159 127 58
248 115 270 126 22 12 99 43 170 70 143 53 190 57 263 21z m89 -1335 c-3 -8
-6 -5 -6 6 -1 11 2 17 5 13 3 -3 4 -12 1 -19z"/>
<path d="M3968 5443 c6 -2 18 -2 25 0 6 3 1 5 -13 5 -14 0 -19 -2 -12 -5z"/>
<path d="M6335 5310 c-3 -6 1 -7 9 -4 18 7 21 14 7 14 -6 0 -13 -4 -16 -10z"/>
<path d="M3471 5174 c0 -11 3 -14 6 -6 3 7 2 16 -1 19 -3 4 -6 -2 -5 -13z"/>
<path d="M5255 4830 c-3 -6 1 -7 9 -4 18 7 21 14 7 14 -6 0 -13 -4 -16 -10z"/>
<path d="M5103 4730 c-50 -37 -55 -50 -41 -92 29 -84 72 -102 120 -50 54 58
63 114 25 150 -31 30 -55 28 -104 -8z"/>
<path d="M5560 4740 c-9 -6 -10 -10 -3 -10 6 0 15 5 18 10 8 12 4 12 -15 0z"/>
<path d="M5510 4720 c-9 -6 -10 -10 -3 -10 6 0 15 5 18 10 8 12 4 12 -15 0z"/>
<path d="M5380 4660 c0 -5 7 -10 16 -10 8 0 12 5 9 10 -3 6 -10 10 -16 10 -5
0 -9 -4 -9 -10z"/>
<path d="M4865 4650 c-3 -6 1 -7 9 -4 18 7 21 14 7 14 -6 0 -13 -4 -16 -10z"/>
<path d="M5343 4640 c-13 -5 -23 -12 -23 -15 0 -9 16 -5 36 10 22 16 19 18
-13 5z"/>
<path d="M4825 4630 c-3 -6 1 -7 9 -4 18 7 21 14 7 14 -6 0 -13 -4 -16 -10z"/>
<path d="M3126 6939 c-108 -101 -200 -265 -253 -449 -17 -61 -18 -126 -18
-1110 0 -1151 -2 -1105 62 -1236 53 -109 111 -156 280 -227 45 -19 94 -43 110
-54 50 -34 211 -103 264 -113 70 -13 164 3 262 44 42 19 77 30 77 25 0 -4 -4
-11 -10 -14 -5 -3 -10 -21 -10 -39 0 -18 -9 -51 -20 -74 -11 -22 -20 -46 -20
-52 0 -5 -9 -19 -20 -30 -11 -11 -20 -28 -20 -38 0 -18 -31 -43 -65 -52 -11
-3 -25 -16 -31 -29 -6 -12 -15 -21 -18 -19 -4 2 -12 -5 -17 -14 -6 -10 -18
-18 -27 -18 -23 -1 -92 -98 -92 -130 0 -15 9 -37 20 -50 11 -13 20 -18 20 -12
0 8 26 12 80 12 47 0 80 4 80 10 0 15 77 12 84 -2 5 -10 7 -10 12 0 3 7 25 12
55 12 41 0 49 3 49 19 0 23 17 31 53 24 16 -3 27 -1 27 6 0 6 9 11 20 11 11 0
20 3 20 8 0 4 15 13 33 21 17 7 46 19 64 27 17 8 38 14 47 14 9 0 16 4 16 9 0
5 12 12 28 15 75 18 100 26 137 40 45 17 122 21 127 6 4 -11 180 64 513 217
132 61 290 132 350 158 61 26 171 77 245 113 l135 67 13 75 c12 76 11 131 -3
75 -9 -41 -70 -79 -175 -109 -45 -13 -87 -31 -93 -40 -7 -8 -27 -18 -45 -21
-58 -10 -324 -129 -304 -136 19 -7 19 -7 -108 -55 -35 -14 -71 -31 -80 -39
-15 -14 -90 -42 -147 -55 -18 -4 -83 -2 -145 6 -89 11 -126 20 -176 46 -35 17
-65 35 -68 40 -3 5 20 -4 53 -20 77 -39 121 -50 218 -55 65 -4 95 0 158 20 44
13 77 26 75 29 -3 2 -31 -5 -64 -17 -71 -25 -159 -21 -249 10 -68 24 -98 46
-41 30 42 -12 94 2 206 54 76 36 214 117 218 129 2 4 9 8 15 8 7 0 23 12 36
26 14 14 51 43 82 64 61 42 162 150 177 191 6 14 13 61 17 104 4 44 13 90 21
102 16 26 71 55 265 141 141 62 269 126 234 117 -11 -3 -105 -43 -210 -91
-238 -107 -220 -100 -211 -86 5 8 1 10 -10 5 -12 -4 -14 -8 -6 -11 14 -4 -31
-31 -148 -87 -163 -79 -216 -103 -240 -110 -23 -6 -23 -5 5 14 17 12 24 21 17
21 -22 0 -272 -124 -272 -135 0 -11 -111 -65 -132 -65 -5 0 -22 -8 -36 -18
-15 -10 -43 -26 -62 -34 -19 -9 -57 -26 -85 -38 -27 -12 -54 -25 -59 -28 -5
-3 -6 0 -2 6 12 19 -6 14 -83 -23 -39 -19 -74 -35 -77 -35 -3 0 -19 -9 -35
-21 -16 -11 -35 -22 -42 -23 -7 -1 -39 -15 -72 -30 -70 -34 -235 -108 -319
-143 -35 -15 -87 -27 -131 -30 -63 -5 -79 -2 -127 19 -30 14 -65 36 -77 49
-30 33 -98 168 -116 232 l-15 52 4 -45 c2 -25 7 -54 11 -65 4 -12 1 -11 -9 5
-37 64 -39 127 -37 1115 0 528 4 985 7 1015 6 59 41 180 77 270 30 75 121 257
152 302 l24 37 -32 6 c-58 13 -205 95 -266 150 -33 29 -57 56 -54 59 4 3 3 6
0 6 -3 0 -35 -27 -71 -61z m-245 -2178 c2 -144 5 -197 12 -184 6 10 17 24 24
31 11 11 13 11 13 -3 0 -9 6 -23 14 -31 8 -7 17 -32 21 -54 6 -33 11 -40 30
-40 17 0 24 -7 29 -30 7 -37 -3 -90 -17 -90 -5 0 -21 -12 -34 -26 -18 -19 -30
-24 -48 -20 -14 4 -25 1 -28 -7 -16 -44 -22 45 -25 336 -2 182 -1 329 2 327 3
-3 6 -97 7 -209z m1355 -819 c-5 -4 -66 26 -66 33 0 3 16 -3 35 -12 19 -9 33
-18 31 -21z m121 -58 c40 -25 73 -48 73 -50 0 -6 -65 30 -130 72 -79 51 -31
32 57 -22z"/>
<path d="M6892 5475 c-17 -37 -14 -45 4 -12 9 16 14 31 11 33 -2 2 -9 -7 -15
-21z"/>
<path d="M6854 5398 c-45 -88 -120 -178 -214 -258 -22 -19 -21 -19 10 1 58 38
135 123 185 204 26 42 45 78 42 81 -3 3 -13 -9 -23 -28z"/>
<path d="M6440 5029 c-52 -26 -91 -48 -86 -48 12 -1 196 86 196 93 0 10 -11 5
-110 -45z"/>
<path d="M6236 4935 c-28 -13 -54 -21 -59 -18 -4 3 -15 -3 -23 -13 -9 -11 -13
-13 -9 -7 4 8 1 11 -9 7 -8 -3 -17 -12 -20 -20 -3 -9 -10 -13 -15 -10 -5 3
-11 -1 -14 -9 -4 -8 -1 -12 6 -9 34 13 211 103 202 103 -5 0 -32 -11 -59 -24z"/>
<path d="M5970 4835 c-14 -8 -20 -14 -14 -15 5 0 19 7 30 15 24 18 16 19 -16
0z"/>
<path d="M5962 4803 c-28 -14 -50 -28 -48 -30 2 -3 30 9 62 26 33 16 54 30 49
31 -6 0 -34 -12 -63 -27z"/>
<path d="M5920 4810 c-9 -6 -10 -10 -3 -10 6 0 15 5 18 10 8 12 4 12 -15 0z"/>
<path d="M6840 4365 c-19 -7 -69 -28 -111 -48 -42 -19 -101 -40 -130 -46 -62
-14 -87 -29 -67 -43 10 -7 10 -8 -2 -6 -8 1 -46 -16 -85 -39 -38 -22 -101 -51
-140 -64 -38 -12 -110 -44 -160 -70 -49 -26 -110 -54 -135 -62 -25 -9 -99 -42
-165 -75 -66 -33 -131 -63 -145 -67 -14 -4 -59 -25 -100 -46 -41 -21 -154 -73
-250 -115 -96 -42 -193 -84 -215 -94 -22 -10 -73 -32 -114 -49 -41 -17 -100
-47 -133 -67 -32 -20 -84 -46 -116 -59 -76 -31 -198 -84 -297 -130 -44 -20
-125 -55 -180 -76 -55 -22 -127 -54 -160 -72 -55 -29 -60 -35 -63 -68 -3 -34
-1 -37 39 -53 23 -9 60 -29 83 -45 56 -38 145 -74 167 -68 12 3 19 0 19 -8 0
-20 49 -57 138 -103 83 -43 133 -52 175 -31 18 9 20 9 10 -2 -37 -39 -7 -66
123 -110 117 -40 165 -37 299 24 100 45 119 63 95 92 -20 24 -46 18 -147 -35
-52 -27 -104 -50 -114 -50 -20 0 -221 101 -215 108 2 2 37 16 77 32 121 46
222 90 236 102 18 14 16 32 -5 58 l-19 23 -44 -30 c-53 -36 -91 -54 -189 -89
-41 -14 -92 -35 -112 -45 -21 -11 -48 -19 -60 -19 -32 0 -163 73 -163 91 0 8
36 32 82 54 103 50 126 70 112 97 -9 17 -8 18 10 9 40 -22 116 -7 214 40 24
11 34 13 28 5 -18 -22 28 -58 129 -99 50 -20 97 -37 105 -37 8 0 49 14 91 30
l76 30 39 -31 c55 -44 182 -91 245 -92 55 0 71 7 517 222 104 50 190 91 192
91 3 0 73 33 157 74 84 40 192 92 241 115 81 38 87 42 87 71 0 25 -4 30 -24
30 -13 0 -47 -13 -77 -29 -30 -16 -93 -45 -141 -65 -48 -19 -131 -58 -185 -85
-54 -27 -172 -84 -263 -126 -91 -42 -236 -111 -323 -152 -86 -42 -167 -75
-180 -75 -13 0 -69 19 -125 43 -86 36 -102 46 -102 65 0 18 5 21 23 18 20 -4
21 -4 2 5 -35 17 -63 12 -128 -24 -40 -22 -77 -35 -100 -35 -21 0 -70 15 -113
35 -41 19 -87 35 -102 35 l-26 0 33 31 c18 16 32 31 30 32 -2 2 -12 8 -21 16
-14 11 -28 6 -94 -28 -101 -54 -132 -53 -235 0 -44 23 -78 47 -77 53 4 14 167
96 191 96 21 0 117 -47 200 -98 56 -34 58 -35 110 -23 59 13 171 63 182 81 4
6 28 21 54 31 50 22 101 65 101 86 0 9 -14 13 -42 13 -57 0 -120 20 -184 59
-17 10 -40 21 -50 23 -15 4 -11 8 18 21 50 22 109 22 139 -2 51 -39 179 -111
198 -111 17 0 103 29 162 54 11 5 18 1 21 -12 8 -28 185 -132 226 -132 65 0
236 87 230 118 -2 8 -11 20 -21 26 -14 9 -31 4 -87 -27 -39 -21 -83 -39 -98
-39 -15 0 -72 22 -128 49 -93 46 -100 51 -87 68 7 11 13 25 13 33 0 22 -60 9
-108 -23 -65 -43 -106 -43 -182 -2 -36 19 -78 38 -93 41 -43 10 -27 28 50 57
39 14 87 36 106 48 l36 22 22 -22 c36 -36 209 -113 254 -113 23 0 65 11 98 26
32 15 55 23 51 17 -15 -24 60 -74 177 -119 76 -28 98 -26 200 25 92 47 106 64
67 89 -14 8 -32 3 -86 -27 -38 -20 -81 -37 -96 -37 -14 0 -68 18 -120 40 -51
22 -102 40 -112 40 -15 0 -12 6 14 30 28 25 31 33 22 50 -14 26 -17 26 -76
-11 -93 -60 -105 -62 -180 -34 -86 32 -167 76 -157 86 5 4 43 19 86 33 44 15
95 35 114 44 l35 18 103 -67 c123 -81 153 -89 230 -60 126 47 170 80 160 118
-6 23 -5 24 24 8 17 -8 36 -15 43 -15 24 0 185 77 222 105 l37 28 -20 21 -21
20 -78 -42 c-44 -23 -89 -42 -100 -42 -11 0 -60 20 -109 45 -48 25 -97 45
-108 46 -11 0 -14 3 -7 6 15 6 16 35 0 51 -9 9 -9 12 -1 12 7 0 15 -4 18 -10
12 -19 81 -10 157 22 l78 32 22 -21 c51 -46 193 -123 227 -123 11 0 45 10 76
22 53 20 58 20 66 5 23 -39 215 -123 258 -112 25 6 81 32 248 111 50 24 96 44
101 44 5 0 15 6 21 14 9 11 5 19 -19 40 -38 32 -62 33 -75 4 -6 -12 -21 -25
-35 -29 -14 -3 -76 -32 -138 -63 l-113 -57 -77 35 c-42 19 -92 37 -110 41
l-34 7 23 24 c18 19 20 26 10 38 -14 16 -48 8 -109 -26 -58 -32 -83 -26 -237
56 -16 9 -35 16 -42 16 -8 0 -7 9 4 29 15 25 24 29 79 34 34 3 79 13 98 21 34
14 37 14 63 -8 16 -12 67 -48 114 -80 98 -65 96 -65 214 -10 83 38 135 86 119
111 -24 38 -42 39 -76 6 -18 -17 -55 -45 -81 -61 l-48 -30 -65 34 c-35 18 -87
36 -114 40 -50 7 -80 24 -42 24 11 0 25 7 33 16 9 11 22 14 47 9 29 -5 39 -2
63 21 34 33 36 47 9 74 -23 23 -50 24 -100 5z m-577 -489 l47 -27 -98 -50 -99
-50 -94 49 c-52 27 -101 51 -109 54 -23 9 14 33 71 46 25 6 70 22 99 35 l53
25 41 -28 c23 -15 62 -40 89 -54z m-1081 -471 c101 -45 117 -54 89 -55 -18 0
-68 -16 -111 -35 -43 -19 -85 -35 -95 -35 -9 0 -56 18 -104 41 -47 22 -96 41
-109 41 -16 0 2 15 60 49 53 31 95 49 115 49 18 0 88 -25 155 -55z m-632 -275
c52 -27 86 -50 75 -50 -12 0 -72 -27 -136 -59 l-115 -60 -94 51 -95 52 120 58
c66 32 127 58 135 58 8 0 58 -22 110 -50z"/>
<path d="M7620 3956 c0 -24 -26 -42 -105 -75 l-76 -32 -83 35 c-87 38 -124 44
-144 24 -23 -23 -12 -37 46 -58 31 -12 83 -37 115 -56 32 -19 64 -34 71 -34
19 0 106 39 138 61 14 11 34 19 45 19 16 1 63 59 63 79 0 13 -41 51 -55 51 -8
0 -15 -6 -15 -14z"/>
<path d="M6570 3870 c-27 -17 -1 -46 90 -97 52 -29 102 -53 112 -53 9 0 52 15
97 34 65 28 78 30 68 15 -16 -26 -5 -34 89 -70 182 -71 153 -67 230 -34 76 32
104 55 104 85 0 35 -28 34 -83 -4 -29 -20 -60 -36 -69 -36 -9 0 -56 21 -104
46 -60 31 -96 44 -115 42 l-28 -4 25 29 c22 26 23 32 11 44 -12 13 -22 11 -73
-15 -33 -16 -78 -35 -102 -42 -40 -13 -45 -12 -115 23 -75 37 -118 49 -137 37z"/>
<path d="M7785 3770 c-21 -22 -48 -43 -59 -46 -22 -7 -198 -85 -303 -135 -34
-16 -65 -29 -68 -29 -4 0 -80 -36 -169 -79 -88 -44 -184 -89 -213 -100 -29
-11 -93 -41 -143 -66 -50 -25 -114 -55 -143 -66 -29 -11 -88 -37 -132 -58 -44
-21 -114 -54 -155 -74 -41 -19 -178 -85 -305 -147 -126 -61 -282 -136 -345
-165 -63 -29 -198 -93 -300 -143 -167 -81 -344 -152 -355 -141 -2 3 50 29 116
58 66 30 118 56 116 58 -3 2 -40 -13 -83 -33 -44 -20 -106 -42 -139 -50 -93
-21 -221 -18 -301 7 -68 21 -561 262 -617 301 -16 11 -56 34 -90 50 -112 54
-207 140 -207 186 0 26 34 67 84 104 30 22 34 28 16 23 -13 -4 -30 -14 -38
-22 -8 -8 -21 -12 -29 -9 -8 3 -11 1 -8 -4 3 -5 -7 -27 -23 -49 -26 -36 -30
-50 -36 -148 -5 -79 -11 -110 -22 -116 -66 -37 -87 -103 -54 -171 34 -71 132
-136 410 -272 415 -204 523 -233 747 -204 178 24 249 49 523 183 205 100 403
195 555 267 44 21 166 79 270 129 105 51 233 111 285 134 52 22 132 61 178 85
46 24 100 49 120 57 20 7 71 29 112 48 164 76 300 137 305 137 19 0 397 195
428 221 46 38 124 167 88 145 -5 -4 -7 3 -4 14 3 11 0 20 -6 20 -19 0 -12 46
15 94 14 25 24 46 22 46 -2 0 -21 -18 -43 -40z m-3834 -807 c13 -16 12 -17 -3
-4 -17 13 -22 21 -14 21 2 0 10 -8 17 -17z m494 -264 c176 -87 345 -166 375
-174 l55 -15 -48 6 c-26 3 -73 17 -105 30 -147 65 -661 333 -707 369 -11 9 9
-1 45 -20 36 -20 209 -108 385 -196z m628 -186 c-7 -2 -19 -2 -25 0 -7 3 -2 5
12 5 14 0 19 -2 13 -5z m-85 -10 c-21 -2 -55 -2 -75 0 -21 2 -4 4 37 4 41 0
58 -2 38 -4z"/>
<path d="M6253 3720 c-42 -17 -34 -25 107 -98 96 -50 113 -50 211 -2 33 16 57
25 54 21 -13 -22 107 -84 221 -115 69 -18 77 -17 179 36 33 17 62 30 65 29 3
-1 6 4 8 12 1 7 -9 19 -22 27 -23 12 -33 10 -88 -13 -35 -15 -71 -27 -80 -27
-10 0 -58 18 -107 40 -95 43 -110 46 -144 29 -15 -7 -13 -3 7 14 20 16 27 29
23 40 -9 24 -28 21 -105 -14 -37 -16 -78 -31 -92 -31 -14 -1 -57 13 -97 31
-74 32 -102 36 -140 21z"/>
<path d="M7304 3574 c-18 -14 -18 -15 4 -4 12 6 22 13 22 15 0 8 -5 6 -26 -11z"/>
<path d="M7200 3525 c-14 -8 -20 -14 -14 -15 5 0 19 7 30 15 24 18 16 19 -16
0z"/>
<path d="M7130 3490 c-9 -6 -10 -10 -3 -10 6 0 15 5 18 10 8 12 4 12 -15 0z"/>
<path d="M4185 3315 c-27 -13 -45 -23 -40 -24 6 0 33 11 60 24 28 13 46 23 40
24 -5 0 -32 -11 -60 -24z"/>
<path d="M5668 3277 c-144 -74 -186 -81 -273 -44 -89 37 -126 42 -170 22 -20
-10 -33 -21 -28 -24 4 -4 60 -31 125 -60 l116 -53 59 17 c76 22 309 123 324
141 9 11 7 20 -5 39 -9 14 -20 24 -24 24 -4 -1 -60 -28 -124 -62z"/>
<path d="M6725 3305 c-25 -12 -26 -14 -5 -9 28 7 60 23 45 23 -5 0 -23 -6 -40
-14z"/>
<path d="M4070 3260 c-9 -6 -10 -10 -3 -10 6 0 15 5 18 10 8 12 4 12 -15 0z"/>
<path d="M6570 3240 c-8 -5 -10 -10 -5 -10 6 0 17 5 25 10 8 5 11 10 5 10 -5
0 -17 -5 -25 -10z"/>
<path d="M6440 3175 c-14 -8 -20 -14 -14 -15 5 0 19 7 30 15 24 18 16 19 -16
0z"/>
<path d="M6120 3020 c-19 -11 -30 -19 -25 -19 6 0 26 8 45 19 19 11 31 19 25
19 -5 0 -26 -8 -45 -19z"/>
<path d="M5960 2945 c-14 -8 -20 -14 -15 -14 6 0 21 6 35 14 14 8 21 14 15 14
-5 0 -21 -6 -35 -14z"/>
<path d="M5050 2899 c-32 -20 -33 -22 -15 -35 10 -8 43 -23 72 -34 30 -11 80
-34 112 -51 67 -34 78 -33 181 13 97 43 123 77 85 108 -13 11 -29 6 -96 -29
-44 -22 -87 -41 -96 -41 -8 0 -52 20 -97 45 -46 25 -89 45 -97 45 -8 0 -30
-10 -49 -21z"/>
<path d="M5800 2870 c-19 -11 -30 -19 -25 -19 6 0 26 8 45 19 19 11 31 19 25
19 -5 0 -26 -8 -45 -19z"/>
<path d="M5644 2796 c-60 -30 -106 -55 -102 -55 7 -1 208 96 216 104 12 12
-12 2 -114 -49z"/>
<path d="M5465 2710 c-3 -6 1 -7 9 -4 18 7 21 14 7 14 -6 0 -13 -4 -16 -10z"/>
<path d="M5365 2660 c-3 -6 1 -7 9 -4 18 7 21 14 7 14 -6 0 -13 -4 -16 -10z"/>
</g>
</svg>
